<?xml version="1.0" encoding="UTF-8" standalone="no"?>
<!-- Created with Inkscape (http://www.inkscape.org/) -->

<svg
   width="33.054932mm"
   height="33.204426mm"
   viewBox="0 0 33.054932 33.204426"
   version="1.1"
   id="svg5"
   inkscape:version="1.1.1 (3bf5ae0d25, 2021-09-20)"
   sodipodi:docname="COL Panhandles.svg"
   xmlns:inkscape="http://www.inkscape.org/namespaces/inkscape"
   xmlns:sodipodi="http://sodipodi.sourceforge.net/DTD/sodipodi-0.dtd"
   xmlns="http://www.w3.org/2000/svg"
   xmlns:svg="http://www.w3.org/2000/svg">
  <sodipodi:namedview
     id="namedview7"
     pagecolor="#c4c4c4"
     bordercolor="#666666"
     borderopacity="1.0"
     inkscape:pageshadow="2"
     inkscape:pageopacity="0"
     inkscape:pagecheckerboard="true"
     inkscape:document-units="mm"
     showgrid="false"
     showguides="true"
     inkscape:guide-bbox="true"
     inkscape:zoom="2.6547419"
     inkscape:cx="30.699783"
     inkscape:cy="61.964592"
     inkscape:window-width="1284"
     inkscape:window-height="969"
     inkscape:window-x="357"
     inkscape:window-y="32"
     inkscape:window-maximized="0"
     inkscape:current-layer="layer1"
     fit-margin-top="0"
     fit-margin-left="0"
     fit-margin-right="0"
     fit-margin-bottom="0" />
  <defs
     id="defs2" />
  <g
     inkscape:label="Layer 1"
     inkscape:groupmode="layer"
     id="layer1"
     transform="translate(-91.508774,-154.42194)">
    <ellipse
       style="opacity:1;fill:#541b2e;fill-opacity:1;stroke:#541b2e;stroke-width:0.365001;stroke-linecap:round;stroke-linejoin:round;stroke-miterlimit:4;stroke-dasharray:none;stroke-opacity:1;paint-order:stroke fill markers"
       id="path57816"
       cx="108.03624"
       cy="171.02415"
       rx="16.344965"
       ry="16.419712" />
    <path
       style="fill:#ccba83;fill-opacity:1;stroke:#ccba83;stroke-width:0.264583px;stroke-linecap:round;stroke-linejoin:round;stroke-opacity:1"
       d="m 99.066441,175.28481 0.71011,1.20843 -3.625294,1.13369 z"
       id="path869" />
    <path
       style="fill:#ccba83;fill-opacity:1;stroke:#ccba83;stroke-width:0.264583px;stroke-linecap:round;stroke-linejoin:round;stroke-opacity:1"
       d="m 100.00647,176.88975 0.89317,1.08018 -3.398987,1.69555 z"
       id="path951" />
    <path
       style="fill:#ccba83;fill-opacity:1;stroke:#ccba83;stroke-width:0.264583px;stroke-linecap:round;stroke-linejoin:round;stroke-opacity:1"
       d="m 101.20992,178.34751 1.07314,0.90163 -3.037955,2.28008 z"
       id="path953" />
    <path
       style="fill:#ccba83;fill-opacity:1;stroke:#ccba83;stroke-width:0.264583px;stroke-linecap:round;stroke-linejoin:round;stroke-opacity:1"
       d="m 102.5934,179.5371 1.20489,0.71611 -2.629,2.74159 z"
       id="path955" />
    <path
       style="fill:#ccba83;fill-opacity:1;stroke:#ccba83;stroke-width:0.264583px;stroke-linecap:round;stroke-linejoin:round;stroke-opacity:1"
       d="m 104.22674,180.46262 1.31229,0.49242 -2.10436,3.16222 z"
       id="path957" />
    <path
       style="fill:#ccba83;fill-opacity:1;stroke:#ccba83;stroke-width:0.264583px;stroke-linecap:round;stroke-linejoin:round;stroke-opacity:1"
       d="m 105.92019,181.04927 1.37778,0.25747 -1.52432,3.47914 z"
       id="path959" />
    <path
       style="fill:#ccba83;fill-opacity:1;stroke:#ccba83;stroke-width:0.264583px;stroke-linecap:round;stroke-linejoin:round;stroke-opacity:1"
       d="m 107.63817,181.31759 1.40156,0.0139 -0.89581,3.69127 z"
       id="path961" />
    <path
       style="fill:#ccba83;fill-opacity:1;stroke:#ccba83;stroke-width:0.264583px;stroke-linecap:round;stroke-linejoin:round;stroke-opacity:1"
       d="m 98.527934,173.60771 0.430803,1.33378 -3.784958,0.31954 z"
       id="path1043" />
    <path
       style="fill:#ccba83;fill-opacity:1;stroke:#ccba83;stroke-width:0.264583px;stroke-linecap:round;stroke-linejoin:round;stroke-opacity:1"
       d="m 98.158869,171.80446 0.161639,1.39227 -3.774363,-0.42684 z"
       id="path1045" />
    <path
       style="fill:#ccba83;fill-opacity:1;stroke:#ccba83;stroke-width:0.264583px;stroke-linecap:round;stroke-linejoin:round;stroke-opacity:1"
       d="m 98.03092,169.90743 -0.0093,1.40159 -3.694181,-0.88376 z"
       id="path1047" />
    <path
       style="fill:#ccba83;fill-opacity:1;stroke:#ccba83;stroke-width:0.264583px;stroke-linecap:round;stroke-linejoin:round;stroke-opacity:1"
       d="m 105.78905,160.50016 -1.26659,0.60025 -0.80803,-3.71148 z"
       id="path1049" />
    <path
       style="fill:#ccba83;fill-opacity:1;stroke:#ccba83;stroke-width:0.264583px;stroke-linecap:round;stroke-linejoin:round;stroke-opacity:1"
       d="m 103.99502,161.19463 -1.15507,0.79396 -1.38773,-3.53585 z"
       id="path1051" />
    <path
       style="fill:#ccba83;fill-opacity:1;stroke:#ccba83;stroke-width:0.264583px;stroke-linecap:round;stroke-linejoin:round;stroke-opacity:1"
       d="m 102.41356,162.13491 -1.04834,0.93036 -1.813227,-3.33768 z"
       id="path1053" />
    <path
       style="fill:#ccba83;fill-opacity:1;stroke:#ccba83;stroke-width:0.264583px;stroke-linecap:round;stroke-linejoin:round;stroke-opacity:1"
       d="m 101.03322,163.31291 -0.93125,1.04755 -2.194327,-3.10047 z"
       id="path1055" />
    <path
       style="fill:#ccba83;fill-opacity:1;stroke:#ccba83;stroke-width:0.264583px;stroke-linecap:round;stroke-linejoin:round;stroke-opacity:1"
       d="m 99.843884,164.63669 -0.748213,1.18522 -2.669989,-2.70169 z"
       id="path1057" />
    <path
       style="fill:#ccba83;fill-opacity:1;stroke:#ccba83;stroke-width:0.264583px;stroke-linecap:round;stroke-linejoin:round;stroke-opacity:1"
       d="m 98.868491,166.15082 -0.37853,1.34955 -3.330401,-1.82658 z"
       id="path1059" />
    <path
       style="fill:#ccba83;fill-opacity:1;stroke:#ccba83;stroke-width:0.264583px;stroke-linecap:round;stroke-linejoin:round;stroke-opacity:1"
       d="m 98.33535,167.89323 -0.138025,1.39482 -3.597383,-1.21934 z"
       id="path1061" />
    <path
       style="fill:#ccba83;fill-opacity:1;stroke:#ccba83;stroke-width:0.264583px;stroke-linecap:round;stroke-linejoin:round;stroke-opacity:1"
       d="m 107.60707,160.24439 -1.37049,0.29379 0.0647,-3.79787 z"
       id="path1063" />
    <path
       style="fill:#ccba83;fill-opacity:1;stroke:#ccba83;stroke-width:0.264583px;stroke-linecap:round;stroke-linejoin:round;stroke-opacity:1"
       d="m 109.36105,160.26581 -1.40112,0.0377 0.75958,-3.7217 z"
       id="path1065" />
    <path
       style="fill:#ccba83;fill-opacity:1;stroke:#ccba83;stroke-width:0.264583px;stroke-linecap:round;stroke-linejoin:round;stroke-opacity:1"
       d="m 111.0944,160.55954 -1.39172,-0.16629 1.29211,-3.5719 z"
       id="path1067" />
    <path
       style="fill:#ccba83;fill-opacity:1;stroke:#ccba83;stroke-width:0.264583px;stroke-linecap:round;stroke-linejoin:round;stroke-opacity:1"
       d="m 112.78114,161.3252 -1.34268,-0.40217 1.88472,-3.29785 z"
       id="path1069" />
    <path
       style="fill:#ccba83;fill-opacity:1;stroke:#ccba83;stroke-width:0.264583px;stroke-linecap:round;stroke-linejoin:round;stroke-opacity:1"
       d="m 114.27181,162.35676 -1.23085,-0.67048 2.52444,-2.83816 z"
       id="path1071" />
    <path
       style="fill:#ccba83;fill-opacity:1;stroke:#ccba83;stroke-width:0.264583px;stroke-linecap:round;stroke-linejoin:round;stroke-opacity:1"
       d="m 115.77467,163.34295 -1.11469,-0.84972 2.92638,-2.42162 z"
       id="path1073" />
    <path
       style="fill:#ccba83;fill-opacity:1;stroke:#ccba83;stroke-width:0.264583px;stroke-linecap:round;stroke-linejoin:round;stroke-opacity:1"
       d="m 116.7403,164.88015 -0.87735,-1.09308 3.42329,-1.64591 z"
       id="path1075" />
    <path
       style="fill:#ccba83;fill-opacity:1;stroke:#ccba83;stroke-width:0.264583px;stroke-linecap:round;stroke-linejoin:round;stroke-opacity:1"
       d="m 117.63135,166.52943 -0.72778,-1.19787 3.60822,-1.18686 z"
       id="path1077" />
    <path
       style="fill:#ccba83;fill-opacity:1;stroke:#ccba83;stroke-width:0.264583px;stroke-linecap:round;stroke-linejoin:round;stroke-opacity:1"
       d="m 118.1897,168.22634 -0.41305,-1.33938 3.78885,-0.2693 z"
       id="path1079" />
    <path
       style="fill:#ccba83;fill-opacity:1;stroke:#ccba83;stroke-width:0.264583px;stroke-linecap:round;stroke-linejoin:round;stroke-opacity:1"
       d="m 118.45134,169.95232 -0.17773,-1.39031 3.77903,0.3831 z"
       id="path1081" />
    <path
       style="fill:#ccba83;fill-opacity:1;stroke:#ccba83;stroke-width:0.264583px;stroke-linecap:round;stroke-linejoin:round;stroke-opacity:1"
       d="m 118.48724,171.70801 0.0483,-1.40079 3.66815,0.98617 z"
       id="path1083" />
    <path
       style="fill:#ccba83;fill-opacity:1;stroke:#ccba83;stroke-width:0.264583px;stroke-linecap:round;stroke-linejoin:round;stroke-opacity:1"
       d="m 118.28752,173.60555 0.22403,-1.3836 3.51506,1.4395 z"
       id="path1085" />
    <path
       style="fill:#ccba83;fill-opacity:1;stroke:#ccba83;stroke-width:0.264583px;stroke-linecap:round;stroke-linejoin:round;stroke-opacity:1"
       d="m 117.77612,175.25902 0.5389,-1.29389 3.08523,2.21565 z"
       id="path1087" />
    <path
       style="fill:#ccba83;fill-opacity:1;stroke:#ccba83;stroke-width:0.264583px;stroke-linecap:round;stroke-linejoin:round;stroke-opacity:1"
       d="m 116.81691,176.79796 0.75259,-1.18244 2.66006,2.71143 z"
       id="path1089" />
    <path
       style="fill:#ccba83;fill-opacity:1;stroke:#ccba83;stroke-width:0.264583px;stroke-linecap:round;stroke-linejoin:round;stroke-opacity:1"
       d="m 115.66043,178.19611 0.88811,-1.08434 2.31805,3.00906 z"
       id="path1091" />
    <path
       style="fill:#ccba83;fill-opacity:1;stroke:#ccba83;stroke-width:0.264583px;stroke-linecap:round;stroke-linejoin:round;stroke-opacity:1"
       d="m 114.25982,179.30992 1.08871,-0.88276 1.66295,3.41503 z"
       id="path1093" />
    <path
       style="fill:#ccba83;fill-opacity:1;stroke:#ccba83;stroke-width:0.264583px;stroke-linecap:round;stroke-linejoin:round;stroke-opacity:1"
       d="m 112.77208,180.28798 1.20974,-0.70788 1.12711,3.62733 z"
       id="path1095" />
    <path
       style="fill:#ccba83;fill-opacity:1;stroke:#ccba83;stroke-width:0.264583px;stroke-linecap:round;stroke-linejoin:round;stroke-opacity:1"
       d="m 111.08078,180.89107 1.33376,-0.43085 0.31979,3.78492 z"
       id="path1097" />
    <path
       style="fill:#ccba83;fill-opacity:1;stroke:#ccba83;stroke-width:0.264583px;stroke-linecap:round;stroke-linejoin:round;stroke-opacity:1"
       d="m 109.37477,181.21621 1.3859,-0.20935 -0.29687,3.78678 z"
       id="path1099" />
    <ellipse
       style="opacity:1;fill:#541b2e;fill-opacity:1;stroke:#541b2e;stroke-width:0.365001;stroke-linecap:round;stroke-linejoin:round;stroke-miterlimit:4;stroke-dasharray:none;stroke-opacity:1;paint-order:stroke fill markers"
       id="ellipse62013"
       cx="108.28922"
       cy="170.81274"
       rx="10.241384"
       ry="10.288527" />
    <path
       style="fill:#867242;fill-opacity:1;stroke:#ccba83;stroke-width:0.365;stroke-linecap:butt;stroke-linejoin:round;stroke-miterlimit:4;stroke-dasharray:none;stroke-opacity:1"
       d="m 112.73679,179.25638 -8.52728,-0.17619 -2.5899,-12.70282 1.90278,0.0176 -1.10996,-2.66038 h 12.47379 l -1.23328,2.53705 1.79707,0.0705 z"
       id="path19909" />
    <path
       style="fill:#541a2e;fill-opacity:1;stroke:#541a2e;stroke-width:0.264583px;stroke-linecap:butt;stroke-linejoin:round;stroke-opacity:1"
       d="m 106.06722,174.20032 -1.81696,0.0842 0.34185,-0.49973 -0.23206,-6.19978 -0.29612,-0.23767 -0.0118,-0.29877 0.56067,-0.01 c 0,0 0.25258,-0.23438 0.47517,-0.28056 0.2226,-0.0462 3.45104,-0.31006 4.32748,0.41591 0.87644,0.72596 1.53516,1.23545 0.88699,2.81949 -0.64818,1.58404 -4.72403,1.29598 -4.72403,1.29598 l -0.026,-0.65977 c 0,0 2.71572,-0.0573 3.17238,-0.17498 0.45666,-0.11779 0.65716,-0.72411 0.76495,-1.15227 0.10779,-0.42816 0.15038,-0.92854 -0.16605,-1.3649 -0.31644,-0.43636 -1.50776,-0.62689 -1.50776,-0.62689 0,0 -1.54204,-0.1773 -2.12925,0.10761 0,0 0.0103,0.80653 0.006,0.86273 l 0.0124,5.40174 z"
       id="path36472"
       sodipodi:nodetypes="cccccccssscccssccccc" />
    <path
       style="fill:#541a2e;fill-opacity:1;stroke:#541a2e;stroke-width:0.264583px;stroke-linecap:butt;stroke-linejoin:round;stroke-opacity:1"
       d="m 106.86331,169.04333 0.53736,0.91616 -0.044,5.71715 -0.49332,0.8633 1.85874,-0.0264 -0.3876,-0.85449 0.0176,-2.59871 2.72203,0.0264 0.0705,2.69561 -0.3788,0.75759 1.88516,-0.0176 -0.33928,-0.78251 -0.0264,-5.83986 0.6057,-0.86136 h -1.99087 l 0.36935,0.84427 0.007,2.50796 -2.82775,0.0176 -0.009,-2.46657 0.64307,-0.85449 z"
       id="path41799"
       sodipodi:nodetypes="ccccccccccccccccccccc" />
  </g>
</svg>
