<?xml version="1.0" encoding="UTF-8" standalone="no"?>
<!-- Created with Inkscape (http://www.inkscape.org/) -->

<svg
   width="210mm"
   height="297mm"
   viewBox="0 0 210 297"
   version="1.1"
   id="svg5"
   inkscape:version="1.1.1 (3bf5ae0d25, 2021-09-20)"
   sodipodi:docname="DEC Staleys.svg"
   xmlns:inkscape="http://www.inkscape.org/namespaces/inkscape"
   xmlns:sodipodi="http://sodipodi.sourceforge.net/DTD/sodipodi-0.dtd"
   xmlns="http://www.w3.org/2000/svg"
   xmlns:svg="http://www.w3.org/2000/svg">
  <sodipodi:namedview
     id="namedview7"
     pagecolor="#ffffff"
     bordercolor="#666666"
     borderopacity="1.0"
     inkscape:pageshadow="2"
     inkscape:pageopacity="0.0"
     inkscape:pagecheckerboard="0"
     inkscape:document-units="mm"
     showgrid="false"
     inkscape:zoom="2.6547419"
     inkscape:cx="382.14638"
     inkscape:cy="613.05396"
     inkscape:window-width="1920"
     inkscape:window-height="1017"
     inkscape:window-x="-8"
     inkscape:window-y="-8"
     inkscape:window-maximized="1"
     inkscape:current-layer="layer1" />
  <defs
     id="defs2" />
  <g
     inkscape:label="Layer 1"
     inkscape:groupmode="layer"
     id="layer1">
    <circle
       style="opacity:1;fill:#cf7146;fill-opacity:1;stroke:#826c61;stroke-width:0.165;stroke-linecap:round;stroke-linejoin:round;stroke-miterlimit:4;stroke-dasharray:none;stroke-opacity:1;paint-order:stroke fill markers"
       id="ellipse27891"
       cx="116.15887"
       cy="159.76208"
       r="15.49782" />
    <ellipse
       style="opacity:1;fill:#190270;fill-opacity:1;stroke:#190270;stroke-width:0.165;stroke-linecap:round;stroke-linejoin:round;stroke-miterlimit:4;stroke-dasharray:none;stroke-opacity:1;paint-order:stroke fill markers"
       id="path17183"
       cx="116.20871"
       cy="159.88667"
       rx="14.850001"
       ry="14.874917" />
    <path
       style="fill:#cf7146;fill-opacity:1;stroke:#cf7146;stroke-width:0.264583px;stroke-linecap:butt;stroke-linejoin:miter;stroke-opacity:1"
       d="m 101.975,157.50787 h 28.6122 c 0,0 -3.03036,-12.06774 -14.27086,-12.03301 -11.17937,0.0346 -14.16516,9.67156 -14.34134,12.03301 z"
       id="path38004"
       sodipodi:nodetypes="ccsc" />
    <path
       style="fill:#1a056f;fill-opacity:1;stroke:#ffffff;stroke-width:0.165;stroke-linecap:butt;stroke-linejoin:round;stroke-miterlimit:4;stroke-dasharray:none;stroke-opacity:1"
       d="m 117.53323,148.76488 1.60078,0.0514 0.2668,-0.43668 0.0267,-1.28436 -1.20058,-1.10453 -3.84188,0.0769 -1.30732,1.07885 v 4.187 l 1.24485,0.967 3.1128,0.0181 0.0943,2.97883 -2.49023,0.0181 -0.0566,-0.83552 h -1.8488 l -0.0188,1.47123 1.28284,0.98084 h 3.67877 l 1.16966,-0.9445 0.0188,-4.19577 -1.15079,-1.12613 -3.15054,-0.0363 0.0377,-2.90615 2.1884,-0.0181 0.32071,0.27247 z"
       id="path2066" />
    <path
       style="fill:#ffffff;stroke:#cf7146;stroke-width:0.264583px;stroke-linecap:butt;stroke-linejoin:round;stroke-opacity:1;fill-opacity:1"
       d="m 105.51971,160.9456 0.98419,-0.0374 0.0125,-0.82223 -0.66028,-0.71011 -1.7815,-0.0249 -0.73502,0.6229 -0.0249,2.14279 0.74749,0.67273 1.28317,-0.0374 0.0374,1.03401 -0.9219,0.0498 v -0.47341 l -1.1586,0.0623 0.0125,0.90944 0.68519,0.68519 1.84379,-0.0249 0.72257,-0.59799 -0.0249,-2.15524 -0.74748,-0.68519 -1.33301,0.0125 0.0125,-1.08385 0.90944,0.0249 z"
       id="path10443" />
    <path
       style="fill:#ffffff;stroke:#cf7146;stroke-width:0.264583px;stroke-linecap:butt;stroke-linejoin:round;stroke-opacity:1;fill-opacity:1"
       d="m 106.91695,159.34034 3.68223,-0.0176 v 1.64732 l -1.03948,-0.0176 -0.0264,-0.58141 c 0,0 -0.14095,-0.31713 -0.36118,0 l 0.0528,3.56768 h 0.3788 l -0.0264,1.02187 -1.7266,-0.009 0.0264,-1.10115 0.2907,-0.009 0.0793,-3.22416 c 0,0 -0.16737,-0.75758 -0.43165,0.0264 l -0.004,0.31754 -0.88092,-0.004 z"
       id="path10478" />
    <path
       style="fill:#ffffff;stroke:#cf7146;stroke-width:0.264583px;stroke-linecap:butt;stroke-linejoin:round;stroke-opacity:1;fill-opacity:1"
       d="m 110.61506,163.9729 -0.32668,0.009 0.003,0.93748 1.5884,-0.0124 0.0125,-0.94681 -0.25539,-0.006 0.0311,-0.4921 c 0,0 0.99664,-0.0498 0.99664,-0.0249 0,0.0249 0.0187,0.55438 0.0187,0.55438 l -0.28654,0.0125 v 1.00288 l 1.66315,-0.0374 -0.0374,-1.02156 -0.2367,-0.0125 -0.89698,-4.5285 -1.44514,0.0125 z"
       id="path11019"
       sodipodi:nodetypes="cccccccsccccccccc" />
    <path
       style="fill:#190270;stroke:#cf7146;stroke-width:0.264583px;stroke-linecap:butt;stroke-linejoin:round;stroke-opacity:1;fill-opacity:1"
       d="m 111.99167,161.00166 -0.13704,1.40152 0.66651,5e-5 -0.19933,-1.40776 z"
       id="path11021"
       sodipodi:nodetypes="ccccc" />
    <path
       style="fill:#ffffff;stroke:#cf7146;stroke-width:0.264583px;stroke-linecap:butt;stroke-linejoin:round;stroke-opacity:1;fill-opacity:1"
       d="m 115.89349,160.45911 0.30833,-0.009 -0.009,-1.03948 h -1.75302 v 0.99543 h 0.27308 l 0.0529,3.36511 -0.26428,-0.009 0.0264,1.21566 3.18012,-0.0528 -0.0529,-1.5328 -1.10114,0.044 0.0176,0.44046 -0.60784,-0.009 z"
       id="path12314" />
    <path
       style="fill:#ffffff;stroke:#cf7146;stroke-width:0.264583px;stroke-linecap:butt;stroke-linejoin:round;stroke-opacity:1;fill-opacity:1"
       d="m 120.3157,160.56482 0.0176,0.39641 1.10115,0.009 -0.0176,-1.5328 -3.2594,0.0264 v 0.88973 l 0.31198,0.002 -0.0125,3.47749 -0.26428,0.009 0.0264,1.12757 3.25058,-0.0176 -0.0264,-1.54161 -1.09126,0.0315 -0.005,0.45701 -0.80635,0.0221 -0.0264,-1.16282 1.45352,-0.0264 -0.0352,-1.09234 -1.36542,-0.009 -0.005,-1.05559 z"
       id="path12316"
       sodipodi:nodetypes="ccccccccccccccccccccc" />
    <path
       style="fill:#ffffff;stroke:#cf7146;stroke-width:0.264583px;stroke-linecap:butt;stroke-linejoin:round;stroke-opacity:1;fill-opacity:1"
       d="m 121.96435,160.37252 0.25538,0.006 0.97173,2.41686 -0.0124,1.14615 -0.30523,0.0125 -0.0125,0.95927 1.65069,-0.0125 -0.0187,-1.01533 -0.35506,2e-5 -0.006,-1.115 0.91567,-2.19262 h 0.35505 l -0.0187,-1.15237 -1.53856,0.0311 -0.0125,0.80977 0.16818,-0.006 0.0125,0.47341 -0.30522,0.69142 -0.42357,-1.14614 0.25539,-0.006 0.006,-0.80977 -1.56972,0.0187 z"
       id="path12750"
       sodipodi:nodetypes="ccccccccccccccccccccccc" />
    <path
       style="fill:#ffffff;stroke:#cf7146;stroke-width:0.264583px;stroke-linecap:butt;stroke-linejoin:round;stroke-opacity:1;fill-opacity:1"
       d="m 127.99404,160.95182 0.97796,-0.0187 -0.0311,-0.89698 -0.70387,-0.61667 -1.75659,0.0187 -0.56061,0.52947 -0.006,2.1241 0.72879,0.64159 1.30187,0.0125 -0.0125,1.13991 -0.94059,0.0187 -0.006,-0.47341 h -1.13369 l 0.0187,0.90321 0.68519,0.66028 1.85625,-0.0374 0.56062,-0.6852 -0.0561,-2.11787 -0.73503,-0.47963 -1.23335,-0.0125 -0.0249,-1.16483 1.04648,0.006 z"
       id="path13906" />
    <path
       style="fill:#ffffff;stroke:#ffffff;stroke-width:0.264583px;stroke-linecap:butt;stroke-linejoin:round;stroke-opacity:1"
       d="m 109.4876,169.50428 h -0.40488 l -0.006,-1.2022 c 0,0 0.32391,-1.04025 1.33924,-0.9655 0,0 0.63513,-0.0498 1.07739,0.0934 0,0 0.26212,0.11695 0.57307,0.72883 0,0 0.52947,0.83469 -0.0685,1.96837 0,0 -0.34261,1.35793 -1.53236,1.19597 0,0 -0.63536,-0.10589 -0.94058,-0.41734 -0.30522,-0.31145 -0.46095,-0.52324 -0.46095,-0.52324 0,0 -0.82846,-0.39866 -0.61667,0.11212 0.21178,0.51078 0.42357,0.27408 0.83469,-0.21178 0.41111,-0.48587 1.09008,-2.02444 1.09008,-2.02444 0,0 0.0934,-0.33013 0.44226,-0.19933 0.34882,0.13081 0.26162,0.26785 0.26162,0.26785 0,0 -1.01533,1.6943 -1.17106,2.13033 -0.15573,0.43603 -0.68519,1.02156 -1.28318,0.76617 -0.59799,-0.25539 -0.44849,-0.0498 -0.66651,-0.54192 -0.21801,-0.4921 0.47964,-0.9219 0.47964,-0.9219 0,0 0.46718,-0.13081 0.87206,0.32391 0.40489,0.45472 1.08385,0.74125 1.08385,0.74125 0,0 0.66651,0.0498 0.9655,-0.80977 0.299,-0.85961 0.3862,-1.35793 0.0748,-1.98083 -0.52727,-0.48195 -1.18388,-0.25188 -1.41946,-0.0749 0,0 -0.56143,0.0126 -0.52405,1.54493 z"
       id="path14128"
       sodipodi:nodetypes="ccccccccscsscscssscscsccc" />
    <path
       style="fill:#ffffff;stroke:#ffffff;stroke-width:0.264583px;stroke-linecap:butt;stroke-linejoin:round;stroke-opacity:1"
       d="m 114.20298,170.10849 c 0,0 -0.64782,0.62913 -1.27072,0.45472 -0.62291,-0.17441 -0.13081,-0.5793 -0.0436,-0.49832 0.0872,0.081 0.54193,0.17441 0.84092,-0.006 0.299,-0.18064 0.56684,-0.69142 0.39243,-1.10254 -0.17441,-0.41111 -0.95304,-0.42357 -1.23958,-0.16818 0,0 -0.45472,0.36105 -0.55439,0.89052 -0.0997,0.52947 -0.39243,0.94681 0.11212,1.3953 0.50456,0.44849 1.76905,-0.49832 1.76905,-0.49832 z"
       id="path14927"
       sodipodi:nodetypes="csscscsscc" />
    <path
       style="fill:#ffffff;stroke:#ffffff;stroke-width:0.264583px;stroke-linecap:butt;stroke-linejoin:miter;stroke-opacity:1"
       d="m 115.54113,169.49291 c 0,0 0.13214,0.33475 0.44046,-0.0264 0.30832,-0.36117 -0.25547,-1.10555 -0.88532,-0.6783 -0.62986,0.42724 -0.97342,0.97341 -0.70033,1.95123 0.27308,0.97782 1.70457,-0.19821 1.70457,-0.19821 0,0 0.0925,-0.35677 -0.27749,-0.21142 -0.36998,0.14535 -0.36558,0.40963 -0.79282,0.27749 -0.42725,-0.13214 -0.044,-1.11876 -0.044,-1.11876 0,0 0.2819,-0.48451 0.43606,-0.27309 0.15416,0.21142 0.11892,0.27749 0.11892,0.27749 z"
       id="path15326"
       sodipodi:nodetypes="cssscsscscc" />
    <path
       style="fill:#ffffff;stroke:#ffffff;stroke-width:0.264583px;stroke-linecap:butt;stroke-linejoin:miter;stroke-opacity:1"
       d="m 116.72929,168.93838 c 0,0 0.47237,-0.52459 0.91723,-0.1546 0.44487,0.36998 0.46689,-0.0176 0.46689,-0.0176 0,0 0.42284,-0.29951 0.31272,0.14976 -0.11011,0.44927 -0.63426,1.30816 -0.65188,1.38744 -0.0176,0.0793 -0.022,0.45368 0.41404,0.22904 0.43605,-0.22463 0.044,0.39642 0.044,0.39642 0,0 -0.41403,0.45367 -0.69152,0.0793 -0.27749,-0.37439 -0.40082,-0.58141 -0.28189,-0.77521 0.11892,-0.1938 0.46688,-0.85449 0.46688,-0.85449 0,0 -0.43605,-0.59462 -0.69592,-0.1013 -0.25987,0.49331 -0.73997,1.00865 -0.36999,1.26411 0.36999,0.25547 0.63426,0.0264 0.63426,0.0264 l 0.19381,0.26869 c 0,0 0.044,-0.0881 0,0 -0.12328,0.15857 -0.41844,0.22899 -1.00425,0.16733 0,0 -0.41868,0.004 -0.38316,-0.46244 0.034,-0.44671 0.28081,-1.37382 0.62878,-1.60285 z"
       id="path15726"
       sodipodi:nodetypes="cscssscsscssccccsc" />
    <path
       style="fill:#ffffff;stroke:#ffffff;stroke-width:0.264583px;stroke-linecap:butt;stroke-linejoin:miter;stroke-opacity:1"
       d="m 119.89286,167.9381 -0.50653,-0.004 -0.0617,0.56378 -0.56819,0.0176 c 0,0 -0.13214,0.0837 -0.009,0.17618 l 0.39224,0.0437 -0.84568,1.62089 c 0,0 0.12773,0.70473 0.39201,0.76639 0.26427,0.0617 0.78401,0.10131 0.90734,-0.22903 0.12333,-0.33035 0.0396,-0.51094 0.0396,-0.51094 0,0 -0.1938,0.35237 -0.43165,0.22464 -0.23785,-0.12773 0,-0.47129 0.022,-0.52855 0.022,-0.0573 0.50213,-1.339 0.50213,-1.339 l 0.48891,-0.022 c 0,0 0.0881,-0.18499 -0.0264,-0.17618 -0.11452,0.009 -0.3876,0.004 -0.3876,0.004 z"
       id="path16540" />
    <path
       style="fill:#ffffff;stroke:#ffffff;stroke-width:0.264583px;stroke-linecap:butt;stroke-linejoin:miter;stroke-opacity:1"
       d="m 120.83104,168.76616 h -0.43606 l -0.76203,1.61651 c 0,0 0.0309,0.81923 0.46252,0.68268 0,0 0.61224,0.2819 0.6695,-0.31713 0,0 -0.47349,0.10131 -0.55278,-0.0859 -0.0793,-0.1872 -0.1916,-0.17619 -0.10571,-0.36338 0.0859,-0.1872 0.72456,-1.5328 0.72456,-1.5328 z"
       id="path16542" />
    <path
       style="fill:#ffffff;stroke:#ffffff;stroke-width:0.264583px;stroke-linecap:butt;stroke-linejoin:miter;stroke-opacity:1"
       d="m 121.51815,168.75294 0.52415,-0.004 -0.68271,1.55482 c 0,0 -0.0529,0.36558 0.24225,0.30392 0.29511,-0.0617 0.99544,-1.46673 0.99544,-1.46673 l -0.0264,-0.5726 0.44046,-0.004 0.0132,0.41844 c 0,0 0.35677,0.14094 0.40082,0.40962 0.044,0.26868 -0.21142,1.03508 -0.21142,1.03508 0,0 0.044,0.46248 0.35236,0.0793 0.30833,-0.3832 0.41844,-0.73116 0.41844,-0.73116 0,0 0.39201,-0.26427 0.35237,0.14535 -0.0397,0.40963 -0.8589,1.22448 -0.8589,1.22448 0,0 -0.70033,0.21582 -0.7708,-0.29511 -0.0705,-0.51093 0.28189,-1.20245 0.28189,-1.20245 0,0 0.0396,-0.73116 -0.28629,-0.10571 -0.32594,0.62545 -1.0527,1.58125 -1.0527,1.58125 0,0 -0.66509,0.28629 -0.74438,-0.12333 -0.0793,-0.40963 -0.2863,-0.34796 -0.11451,-0.70033 0.17177,-0.35237 0.72675,-1.54601 0.72675,-1.54601 z"
       id="path16674" />
    <circle
       style="fill:#1b0370;fill-opacity:1;stroke:#1b0370;stroke-width:0.165;stroke-linecap:round;stroke-linejoin:round;stroke-miterlimit:4;stroke-dasharray:none;stroke-opacity:1;paint-order:stroke fill markers"
       id="path16927"
       cx="113.30289"
       cy="169.4202"
       r="0.20867239" />
  </g>
</svg>
