<?xml version="1.0" encoding="UTF-8" standalone="no"?>
<!-- Created with Inkscape (http://www.inkscape.org/) -->

<svg
   width="33.294205mm"
   height="15.795879mm"
   viewBox="0 0 33.294205 15.795879"
   version="1.1"
   id="svg5"
   inkscape:version="1.1.1 (3bf5ae0d25, 2021-09-20)"
   sodipodi:docname="DET Heralds.svg"
   xmlns:inkscape="http://www.inkscape.org/namespaces/inkscape"
   xmlns:sodipodi="http://sodipodi.sourceforge.net/DTD/sodipodi-0.dtd"
   xmlns="http://www.w3.org/2000/svg"
   xmlns:svg="http://www.w3.org/2000/svg">
  <sodipodi:namedview
     id="namedview7"
     pagecolor="#ffffff"
     bordercolor="#666666"
     borderopacity="1.0"
     inkscape:pageshadow="2"
     inkscape:pageopacity="0.0"
     inkscape:pagecheckerboard="0"
     inkscape:document-units="mm"
     showgrid="false"
     fit-margin-top="0"
     fit-margin-left="0"
     fit-margin-right="0"
     fit-margin-bottom="0"
     inkscape:zoom="5.3094837"
     inkscape:cx="65.07224"
     inkscape:cy="33.430746"
     inkscape:window-width="1920"
     inkscape:window-height="1017"
     inkscape:window-x="-8"
     inkscape:window-y="-8"
     inkscape:window-maximized="1"
     inkscape:current-layer="layer1" />
  <defs
     id="defs2" />
  <g
     inkscape:label="Layer 1"
     inkscape:groupmode="layer"
     id="layer1"
     transform="translate(-114.75991,-140.86459)">
    <path
       style="fill:#8c0208;fill-opacity:1;stroke-width:1"
       d="m 122.16085,156.52286 c -0.36475,-0.11245 -1.04344,-0.4011 -1.50822,-0.64145 -1.08969,-0.5635 -1.27323,-0.55146 -1.90333,0.12488 -0.38482,0.41305 -0.7029,0.51683 -1.20094,0.39183 -0.3726,-0.0935 -0.67747,-0.30922 -0.67747,-0.47935 0,-0.56386 1.10334,-1.91587 2.37782,-2.91372 1.26085,-0.98718 1.59093,-1.68647 1.59093,-3.37044 0,-1.06984 -0.19337,-1.08765 -1.17298,-0.10803 -0.73065,0.73064 -1.09203,0.89076 -2.01046,0.89076 -0.94116,0 -1.26179,-0.15066 -2.01084,-0.94488 -0.75317,-0.7986 -0.89023,-1.13653 -0.88532,-2.18281 0.008,-1.63179 0.71931,-3.12875 2.06361,-4.34078 1.54442,-1.39246 2.67459,-1.79295 5.04049,-1.78614 2.39604,0.007 3.66342,0.49812 5.16854,2.00324 1.64638,1.64638 1.99957,2.71086 1.92311,5.79616 -0.0546,2.2046 -0.1673,2.82233 -0.67565,3.70417 -1.60765,2.78883 -4.22735,4.43984 -6.11929,3.85656 z m 3.11417,-2.73208 c 2.14949,-2.28968 1.98518,-6.67031 -0.3373,-8.99279 -0.5585,-0.5585 -0.82364,-0.66089 -1.19572,-0.46175 -0.68586,0.36706 -0.85137,1.50016 -0.52111,3.56756 0.34503,2.15977 0.1782,3.0798 -0.82285,4.53788 l -0.75404,1.09829 0.98688,0.40943 c 1.37276,0.56951 1.99566,0.53214 2.64414,-0.15862 z m -6.17709,-6.66908 c 0.28766,-0.68846 0.51315,-0.88914 0.91262,-0.81221 0.40983,0.0789 0.57031,-0.0787 0.70517,-0.69276 0.096,-0.43722 0.53272,-1.20282 0.97042,-1.70134 l 0.79582,-0.90638 h -1.22653 c -2.4371,0 -4.38454,1.51323 -4.38454,3.40696 0,1.13 0.37512,1.62012 1.23999,1.62012 0.43986,0 0.70928,-0.24958 0.98705,-0.91439 z m 14.4742,9.38857 c -1.09987,-0.26961 -2.05026,-0.96609 -2.62759,-1.9256 -0.42799,-0.71132 -0.41925,-0.74593 0.39357,-1.55875 0.99171,-0.99171 1.50048,-0.88631 2.04808,0.4243 0.50785,1.21544 1.44078,1.59756 2.65835,1.08882 0.49065,-0.205 1.01961,-0.61101 1.17546,-0.90222 0.15829,-0.29576 0.31368,-2.40802 0.35203,-4.78517 0.0605,-3.7533 0.0187,-4.25564 -0.35467,-4.25541 -0.23283,1.5e-4 -0.9299,-0.3667 -1.54906,-0.81521 -1.33182,-0.96477 -2.26145,-0.88852 -2.68293,0.22005 -0.57754,1.51905 0.71176,2.53079 1.75544,1.37753 0.6337,-0.70023 1.54957,-0.57833 1.66298,0.22133 0.11975,0.84441 -1.74853,2.70073 -2.71812,2.70073 -1.61437,0 -2.77723,-1.18 -2.78598,-2.82704 -0.007,-1.39294 0.27348,-2.1161 1.2251,-3.15416 1.7657,-1.92608 3.087,-1.93727 5.70628,-0.0483 0.38679,0.27895 0.59329,0.19404 1.37822,-0.56674 0.77715,-0.75325 0.98777,-0.84131 1.33097,-0.55648 0.54726,0.45418 0.51766,0.71396 -0.25485,2.23665 -0.40204,0.79246 -0.66035,1.7498 -0.66035,2.44739 0,1.04578 0.0577,1.14579 0.66146,1.14579 0.47976,0 0.66146,-0.14195 0.66146,-0.51672 0,-1.26789 1.69896,-3.94287 3.11567,-4.90555 1.12311,-0.76317 2.55941,-0.86809 3.44004,-0.25127 0.78152,0.5474 0.7417,0.9294 -0.18992,1.82195 -0.74085,0.70977 -1.60329,0.79354 -1.60329,0.15572 0,-0.15008 -0.23311,-0.27288 -0.51802,-0.27288 -1.42149,0 -2.68103,4.65768 -2.13498,7.89503 0.55875,3.31269 1.92535,4.44481 3.23201,2.67747 0.71329,-0.96478 1.62378,-0.97692 1.75867,-0.0234 0.12043,0.85132 -1.60981,2.60621 -2.91652,2.95807 -2.61714,0.70472 -4.64554,-1.84307 -4.75016,-5.9665 l -0.0403,-1.5875 -0.17514,1.89791 c -0.36319,3.93578 -3.30489,6.45647 -6.59394,5.65023 z"
       id="path1052" />
  </g>
</svg>
