<?xml version="1.0" encoding="UTF-8" standalone="no"?>
<!-- Created with Inkscape (http://www.inkscape.org/) -->

<svg
   width="95.197304mm"
   height="82.732574mm"
   viewBox="0 0 95.197304 82.732574"
   version="1.1"
   id="svg5"
   inkscape:version="1.1.1 (3bf5ae0d25, 2021-09-20)"
   sodipodi:docname="ROC Jeffersons.svg"
   xmlns:inkscape="http://www.inkscape.org/namespaces/inkscape"
   xmlns:sodipodi="http://sodipodi.sourceforge.net/DTD/sodipodi-0.dtd"
   xmlns="http://www.w3.org/2000/svg"
   xmlns:svg="http://www.w3.org/2000/svg">
  <sodipodi:namedview
     id="namedview7"
     pagecolor="#878787"
     bordercolor="#666666"
     borderopacity="1.0"
     inkscape:pageshadow="2"
     inkscape:pageopacity="0"
     inkscape:pagecheckerboard="true"
     inkscape:document-units="mm"
     showgrid="false"
     fit-margin-top="0"
     fit-margin-left="0"
     fit-margin-right="0"
     fit-margin-bottom="0"
     inkscape:zoom="1.877186"
     inkscape:cx="153.15478"
     inkscape:cy="136.6407"
     inkscape:window-width="1920"
     inkscape:window-height="1017"
     inkscape:window-x="-8"
     inkscape:window-y="-8"
     inkscape:window-maximized="1"
     inkscape:current-layer="layer1" />
  <defs
     id="defs2" />
  <g
     inkscape:label="Layer 1"
     inkscape:groupmode="layer"
     id="layer1"
     transform="translate(-62.054867,-101.45983)">
    <path
       id="path18188"
       style="fill:#d72623;fill-opacity:1;stroke-width:1"
       d="m 73.267578,101.46484 c -2.170466,0.0384 -4.167706,1.23522 -5.483932,2.91921 -2.910304,3.26016 -3.977534,7.68658 -4.328617,11.93628 -0.319667,3.94755 -0.300385,7.92257 -0.09028,11.87527 0.119449,2.78051 0.972382,5.47717 2.289186,7.91682 1.050608,2.1028 2.17187,4.17832 3.436352,6.15718 0.419345,1.29219 -0.481059,2.53248 -0.972899,3.67431 -4.331215,7.72962 -6.504253,16.69277 -5.987616,25.55024 0.218838,3.45831 1.106203,7.1524 3.738209,9.59442 2.169441,1.97132 5.120289,3.47055 8.122552,3.02487 2.916669,-0.41861 5.065259,-2.9039 5.987719,-5.57212 0.811432,-2.34146 0.924597,-4.85297 1.240192,-7.29313 0.613655,-6.10905 0.720943,-12.28402 1.595261,-18.34286 0.166896,-0.588 0.101832,-1.50819 0.766368,-1.76471 1.138124,-0.0531 2.226329,0.5308 3.363281,0.42188 0.693328,-0.19548 0.435966,-1.05771 -0.05352,-1.3552 -1.010918,-0.86599 -2.056873,-1.71942 -3.237492,-2.34402 -0.617414,-2.495 -0.644638,-5.09853 -0.78125,-7.6289 -0.0075,-2.41736 -0.33936,-4.88746 0.20427,-7.26786 0.567933,-1.80844 2.194091,-2.96816 3.354695,-4.38333 0.379005,-0.44343 1.165914,-1.1009 0.580402,-1.68145 -0.69189,-0.27764 -1.364486,0.45795 -1.97542,0.76335 -0.727742,0.39237 -1.48102,1.08601 -2.349494,0.95796 -0.639467,-0.86183 -0.47202,-2.06353 -0.545226,-3.08748 -0.0935,-4.72578 -0.969514,-9.39507 -1.885604,-14.01819 -0.582489,-2.5477 -1.060943,-5.15958 -2.141436,-7.55449 -0.929892,-1.71975 -2.950934,-2.57706 -4.845703,-2.49805 z m -0.496094,7.5918 c 1.511909,0.34057 2.154753,1.98441 2.703005,3.26358 1.47523,4.07127 1.937583,8.4199 2.394784,12.70039 0.2442,2.54178 0.455228,5.08668 0.685415,7.62978 -2.177639,2.4111 -4.351393,4.82361 -6.529297,7.23438 -1.981545,-3.1786 -4.049736,-6.45409 -4.654839,-10.22042 -0.562731,-3.4446 -0.372216,-6.89839 0.09566,-10.32852 0.5182,-3.14533 1.253613,-6.38569 3.078705,-9.05458 0.512319,-0.71628 1.288172,-1.34788 2.226562,-1.22461 z m 39.773436,0.58984 c -1.71273,0.11316 -2.60713,1.84859 -2.96484,3.32813 -0.83485,3.62951 -0.56445,7.39859 -0.33814,11.08264 0.2408,3.93345 0.94902,7.83756 0.94975,11.78362 0.0315,1.44952 -0.51943,2.97635 -1.8206,3.74311 -1.83677,1.1388 -3.83026,2.01612 -5.82257,2.8438 -2.2604,0.80113 -5.181853,1.32608 -7.380551,-0.0977 -0.908473,-0.61768 -1.5154,-1.79531 -1.349752,-2.87483 1.284161,-1.43381 3.202687,-2.03173 4.825013,-2.98882 1.015076,-0.27051 0.0097,-0.53393 -0.446909,-0.79946 -1.665122,-0.97014 -3.639939,-1.56339 -4.934602,-3.05759 -0.460625,-0.4609 -0.342687,-1.24 0.261719,-1.50782 1.284856,-0.77365 3.139728,-0.51866 4.113281,-1.81054 0.478741,-0.9196 -0.662659,-1.66003 -1.453588,-1.78884 -2.07183,-0.35653 -4.37941,0.41843 -5.739753,2.03832 -1.118851,1.51023 -1.674774,3.6055 -1.035175,5.42044 0.134325,0.43813 0.519755,0.70701 0.794922,1.02539 0.629378,2.16871 -0.485594,4.46621 0.343664,6.61514 0.726695,2.42261 3.188282,3.86892 5.597529,4.11068 4.133162,0.4838 8.160342,-1.10707 11.744992,-3.00474 1.13802,-0.53381 2.28395,-1.07653 3.50131,-1.40468 -0.56598,5.34179 -2.35985,10.46524 -3.0104,15.79576 -0.54383,4.20299 -0.79329,8.70337 0.99672,12.65978 0.71077,1.36911 1.46415,3.06093 3.06251,3.54837 1.54849,0.31568 2.73786,-1.04468 3.60467,-2.12504 1.34281,-1.51562 1.92603,-3.52693 1.99885,-5.51949 0.20906,-5.06691 0.0418,-10.15582 -0.49761,-15.19844 -0.13063,-1.83904 -0.69591,-3.59299 -1.06698,-5.38673 -0.18947,-1.26955 -0.57768,-2.69574 -0.20299,-4.00077 0.81939,-0.37195 1.77824,0.0365 2.64912,0.0567 1.98004,0.19488 3.97581,-0.0415 5.89431,-0.53405 0.89736,-0.21488 1.94061,0.21588 2.14212,1.18435 0.50966,1.94827 0.0799,4.03793 -0.24776,6.03689 -0.99483,5.28483 -0.98091,10.70856 -0.78824,16.06711 0.21638,3.54959 0.41353,7.15221 1.4149,10.5835 0.49451,1.47223 1.50865,2.84808 2.88837,3.59115 1.52232,0.78479 3.20901,-0.23932 4.19441,-1.41049 1.63435,-2.05144 1.92948,-4.797 2.11264,-7.32617 0.2815,-6.68624 -1.1524,-13.35746 -3.54698,-19.57519 -0.79889,-2.49603 -1.69816,-5.11139 -1.37305,-7.76758 0.0944,-0.99871 0.88536,-1.94675 1.95155,-1.87305 1.57602,0.0278 2.29721,1.66876 3.06366,2.78876 2.07683,2.82196 5.33086,4.62635 8.68995,5.45704 2.0641,0.52517 4.27743,0.32607 6.20655,-0.58246 1.97883,-0.89849 3.98412,-2.01665 5.32054,-3.77492 0.45726,-0.52167 0.70062,-1.71203 -0.23615,-1.84545 -1.47226,0.11357 -2.50419,1.36445 -3.69222,2.10455 -0.66083,0.36731 -1.43475,1.06848 -2.22966,0.77045 -0.72076,-0.90462 -0.51274,-2.18979 -0.58809,-3.2769 0.0459,-1.89225 -0.64199,-3.76988 -1.94804,-5.14724 -1.45991,-1.64924 -3.26914,-3.05627 -4.30371,-5.03679 0.0658,-0.95903 -0.56526,-2.1627 -1.66797,-2.00782 -1.27623,0.17187 -1.85852,1.44633 -2.43988,2.42692 -1.73447,1.94656 -4.02524,3.32726 -6.35348,4.45548 -0.57482,0.23655 -1.15801,0.51002 -1.78672,0.5512 0.36148,-1.8778 1.59893,-3.44366 2.00289,-5.31571 1.11128,-4.24605 1.40676,-8.72456 0.81649,-13.07588 -0.32692,-2.08521 -1.05456,-4.23835 -2.58414,-5.75037 -0.88927,-0.90557 -2.39542,-0.78787 -3.27649,0.0653 -1.74867,1.49426 -2.65795,3.72779 -2.91773,5.97311 -0.65421,5.17619 -0.37262,10.43376 -0.80258,15.60964 -0.0877,0.97562 -0.11927,1.93164 -0.34391,2.90013 -1.56611,0.59418 -3.18279,0.58367 -4.82144,0.6086 -1.31519,-0.0757 -2.82626,0.0515 -3.92074,-0.80782 -0.77464,-0.9724 -0.20106,-2.30563 0.0711,-3.36426 1.0018,-2.86932 1.20919,-5.93837 1.53764,-8.93863 0.2897,-3.91054 0.61929,-7.89239 -0.10093,-11.77524 -0.34805,-1.80725 -1.3412,-3.75387 -3.24899,-4.27608 -0.47269,-0.14528 -0.97219,-0.23154 -1.46781,-0.19853 z m 0.56836,4.45313 c 0.74404,0.72177 0.79884,1.8921 0.98917,2.86487 0.40896,3.17119 0.21366,6.45254 -0.0876,9.65225 -0.15092,1.37432 -0.31323,2.75957 -0.74729,4.07858 -0.89328,-4.13674 -1.15338,-8.35423 -1.148,-12.56088 0.0766,-1.16041 -0.0482,-2.41494 0.43566,-3.49513 0.14808,-0.20251 0.30197,-0.47244 0.55804,-0.53969 z m 16.71875,4.57812 c 0.82616,0.75676 0.90218,2.01318 1.09131,3.06173 0.37212,3.64982 0.043,7.44635 -1.34912,10.86406 -0.24028,0.58327 -0.61572,1.09418 -1.02344,1.57031 -0.74872,-1.61724 -0.68417,-3.3821 -0.77659,-5.1039 0.003,-2.87274 0.0196,-5.81222 0.84104,-8.58751 0.29311,-0.6191 0.53219,-1.54546 1.2168,-1.80469 z m 11.92188,17.98243 c 1.27006,0.57923 2.41431,1.5033 3.28777,2.59612 1.21455,1.6384 2.17481,3.75455 1.70832,5.82575 -0.13035,0.73722 -0.88718,1.25605 -1.60547,0.9375 -2.13707,-0.8089 -3.65173,-2.64333 -5.2116,-4.23032 -0.55851,-0.71191 -1.55867,-1.53277 -1.19855,-2.53726 0.62318,-1.0236 1.58813,-1.81522 2.54882,-2.51172 0.14569,-0.0714 0.30772,-0.12735 0.47071,-0.0801 z m -63.392582,3.99804 c -0.04558,1.46494 0.109161,3.00458 -0.410156,4.40039 -0.341276,0.148 -0.726115,-0.4042 -1.007148,-0.60573 -0.710661,-0.80012 -1.723378,-1.57033 -1.833214,-2.70319 0.234709,-1.41118 1.410509,-2.4157 2.217087,-3.52964 0.308817,-0.22916 1.00555,-1.553 1.013702,-0.93371 0.0066,1.12396 0.01315,2.24792 0.01973,3.37188 z m -4.933594,5.50391 c 1.677826,0.97384 3.814622,1.79393 4.523438,3.77148 0.613265,2.21817 0.388385,4.55861 0.424036,6.83469 -0.146294,5.35188 -0.668698,10.68149 -1.833363,15.92739 -0.458281,1.79377 -0.903744,4.00073 -2.772314,4.84925 -2.09616,0.88377 -4.414617,-0.4771 -5.58789,-2.22265 -1.260043,-1.91493 -1.752311,-4.2401 -1.968012,-6.49245 -0.207433,-3.74457 0.633924,-7.43433 1.419183,-11.10326 0.994376,-3.8182 2.226623,-7.62153 4.140081,-11.08649 0.259553,-0.281 0.459471,-1.05938 0.894573,-0.87552 0.253423,0.13252 0.506845,0.26504 0.760268,0.39756 z m 40.609376,6.48047 c 0.9574,3.73582 1.04671,7.65299 0.75287,11.48214 -0.21991,1.65395 -0.30154,3.54199 -1.5082,4.81959 -0.55506,0.66483 -1.38712,-0.016 -1.4905,-0.67925 -0.54149,-2.52723 -0.33462,-5.15649 -0.20067,-7.68509 0.22888,-3.1393 0.70035,-6.29239 1.7558,-9.29813 0.18316,-1.08153 0.34397,0.37913 0.51436,0.7503 0.0588,0.20348 0.11756,0.40696 0.17634,0.61044 z m 16.18555,0.34961 c 1.11665,2.41826 1.48431,5.10032 1.94459,7.70185 0.47107,3.25466 0.8499,6.55035 0.66478,9.84307 -0.11674,1.03559 -0.24786,2.40499 -1.0957,3.21094 -0.61815,0.23938 -0.99465,-0.61493 -1.25703,-1.03747 -1.34212,-2.71357 -1.19445,-5.7686 -1.28267,-8.72425 0.0274,-3.58764 0.0851,-7.13483 0.74977,-10.66579 0.0583,-0.18498 0.11574,-0.7914 0.27626,-0.32835 z" />
    <path
       style="fill:#fdfbf9;fill-opacity:1;stroke-width:1"
       d="m 69.10647,182.6861 c -4.72454,-2.38087 -6.57941,-6.37149 -6.52993,-14.04868 0.0472,-7.32759 2.00038,-15.01066 5.42407,-21.33648 1.91592,-3.53998 2.13899,-4.58265 1.24374,-5.81338 -0.60001,-0.82485 -2.08469,-3.51204 -3.29929,-5.97155 -1.9062,-3.85994 -2.20688,-5.69562 -2.19747,-13.41549 0.0116,-9.52691 1.42024,-14.41693 5.25864,-18.25534 2.53186,-2.53185 6.80539,-2.45927 8.51149,0.14457 1.44244,2.20143 4.08881,15.92851 4.08881,21.20914 0,4.26101 0.67267,4.84469 3.50607,3.04223 2.17424,-1.38312 2.1534,-1.30341 -0.36133,1.38205 -2.5932,2.76927 -2.66133,3.06983 -2.41,10.6319 0.14225,4.28013 0.58175,7.89719 0.97667,8.03791 0.39492,0.14072 1.47942,0.87245 2.41,1.62607 1.60479,1.29963 1.56927,1.34418 -0.68936,0.8647 -2.18803,-0.4645 -2.4215,-0.2335 -2.8762,2.84576 -0.27217,1.84321 -0.73982,7.37593 -1.03921,12.29495 -0.2994,4.91901 -0.93196,10.20301 -1.40571,11.7422 -1.65695,5.3834 -5.90303,7.39197 -10.61099,5.01944 z m 6.96445,-6.77535 c 1.45398,-2.97532 2.85314,-12.97426 2.84686,-20.34476 -0.006,-6.97707 -0.16476,-7.23912 -6.32575,-10.43744 -1.05046,-0.54533 -4.4633,7.56724 -5.73855,13.64098 -1.56687,7.46267 -1.60434,10.57965 -0.1771,14.73372 1.77284,5.15995 7.35091,6.58942 9.39454,2.4075 z m 2.82035,-35.25214 -0.0322,-5.1426 -2.19931,2.6831 c -2.60312,3.17573 -2.68041,3.80919 -0.72803,5.96655 2.39597,2.64751 2.99357,1.93935 2.9595,-3.50705 z m -0.38329,-14.53345 c -1.15475,-13.0429 -3.42268,-18.76076 -6.91042,-17.42238 -2.30661,0.88513 -4.53235,6.91698 -4.98107,13.49892 -0.45935,6.73794 0.36394,10.43292 3.45186,15.49209 l 1.87511,3.07215 3.5792,-3.96651 3.57919,-3.96652 z m 49.85814,50.36015 c -1.99951,-3.05163 -2.72754,-19.43514 -1.20706,-27.16356 1.32443,-6.732 0.35257,-9.10223 -3.30236,-8.05401 -1.35933,0.38985 -3.77488,0.51753 -5.36788,0.28373 -2.57046,-0.37727 -2.89637,-0.18658 -2.89637,1.69464 0,1.16585 0.41231,3.52571 0.91624,5.24411 0.50394,1.71841 0.9834,7.05053 1.06548,11.84916 0.12899,7.54208 -0.0992,9.05756 -1.68355,11.17958 -2.44351,3.27283 -4.0036,3.0938 -5.88657,-0.67549 -2.10634,-4.21642 -1.99077,-10.42099 0.3786,-20.32509 1.08566,-4.53814 1.75269,-8.47239 1.48228,-8.7428 -0.2704,-0.2704 -2.64461,0.62536 -5.27603,1.99059 -9.07593,4.70876 -16.7043,2.55841 -15.76508,-4.44399 0.24777,-1.84726 0.0863,-3.58371 -0.35875,-3.85878 -1.38616,-0.8567 -0.88765,-4.51821 0.82632,-6.06934 1.75423,-1.58756 5.10366,-1.98198 5.89925,-0.69469 0.267,0.43201 -0.71541,1.02565 -2.18313,1.31919 -3.50305,0.70061 -3.41999,2.82703 0.18322,4.69032 l 2.8518,1.47472 -2.40462,1.25991 c -1.32254,0.69295 -2.40462,1.6166 -2.40462,2.05256 0,4.19624 5.12167,5.54559 10.86442,2.86233 7.39011,-3.45298 7.21404,-3.02038 5.9938,-14.72668 -1.28688,-12.34566 -0.30445,-17.92289 3.07152,-17.43688 3.33494,0.4801 4.36961,3.8909 3.88292,12.80004 -0.24185,4.42711 -0.91018,9.36234 -1.48519,10.96718 -1.59895,4.46265 -0.71424,5.5786 4.42267,5.5786 2.44591,0 4.68542,-0.38559 4.97668,-0.85686 0.29126,-0.47127 0.61686,-5.21894 0.72356,-10.55037 0.15084,-7.53722 0.54674,-10.23139 1.77975,-12.11146 2.18622,-3.33351 4.06411,-3.02642 5.72322,0.93594 1.71657,4.0996 1.14731,13.86485 -1.0567,18.12694 -0.80584,1.55832 -1.25526,3.0432 -0.99871,3.29975 0.98369,0.98369 8.38367,-3.45115 9.36973,-5.61532 0.98293,-2.15729 2.81684,-2.28589 2.81684,-0.19753 0,0.53616 1.40863,2.34287 3.13028,4.01492 2.53654,2.46346 3.13028,3.71049 3.13028,6.5745 0,4.0815 1.20831,4.50474 4.7984,1.68077 1.29609,-1.0195 2.35653,-1.45118 2.35653,-0.95928 0,1.52074 -4.49802,4.52552 -7.66344,5.11935 -3.96915,0.74462 -10.15415,-2.22159 -12.33678,-5.91648 -1.15345,-1.95263 -2.18845,-2.67363 -3.55793,-2.4785 -2.82228,0.40213 -2.89784,4.49574 -0.21457,11.62454 3.74092,9.9387 4.15469,22.00358 0.86737,25.29089 -2.00281,2.00282 -3.67845,1.68462 -5.46182,-1.03715 z m 4.76998,-4.3943 c 1.11591,-4.44612 -1.33332,-20.02923 -3.14803,-20.02923 -1.19927,0 -1.83587,14.45589 -0.81725,18.5581 1.0624,4.27852 3.07341,5.02462 3.96528,1.47113 z m -18.32825,-4.89131 c 0.98241,-3.51551 0.85345,-10.84035 -0.25863,-14.69073 l -1.03326,-3.57747 -1.23803,4.02465 c -1.36844,4.44858 -1.84758,14.25816 -0.78075,15.98433 0.99358,1.60764 2.6129,0.75618 3.31067,-1.74078 z m 32.3818,-21.76999 c 0.84418,-2.19989 -0.74909,-6.14881 -3.22742,-7.99915 -2.31958,-1.73182 -2.44258,-1.73608 -4.20009,-0.14555 -2.43307,2.2019 -2.31232,2.82711 1.23031,6.36973 3.22852,3.22852 5.40068,3.85066 6.1972,1.77497 z m -15.91091,-16.9895 c 1.17489,-7.8347 -1.07366,-13.62951 -3.15966,-8.1429 -1.01411,2.66732 -1.20817,11.1387 -0.30885,13.4823 0.55544,1.44744 0.66093,1.44457 1.75204,-0.0476 0.63856,-0.87328 1.41097,-3.25459 1.71647,-5.29178 z m -16.41921,-7.06435 c 0.0913,-6.2799 -1.22421,-9.49922 -2.82392,-6.91083 -0.81764,1.32296 -0.46924,10.86583 0.57263,15.68478 l 0.5801,2.6831 0.79132,-2.6831 c 0.43524,-1.4757 0.83117,-5.42398 0.87987,-8.77395 z"
       id="path2605" />
  </g>
</svg>
